<?xml version="1.0" encoding="UTF-8" standalone="no" ?>
<!DOCTYPE svg PUBLIC "-//W3C//DTD SVG 1.1//EN" "http://www.w3.org/Graphics/SVG/1.1/DTD/svg11.dtd">
<svg xmlns="http://www.w3.org/2000/svg" xmlns:xlink="http://www.w3.org/1999/xlink" version="1.1" width="500" height="500" viewBox="0 0 500 500" xml:space="preserve">
<desc>Created with Fabric.js 4.6.0</desc>
<defs>
</defs>
<g transform="matrix(6.18 0 0 6.18 250.09 250.4)" id="_2kuDVuUpFxUrLXcndzAW"  >
<g style="" vector-effect="non-scaling-stroke"   >
		<g transform="matrix(1 0 0 1 0 0)" id="hBO2ge1b5xeIzeDHraPV3"  >
<path style="stroke: none; stroke-width: 1; stroke-dasharray: none; stroke-linecap: butt; stroke-dashoffset: 0; stroke-linejoin: miter; stroke-miterlimit: 4; fill: black; fill-rule: nonzero; opacity: 1;" vector-effect="non-scaling-stroke"  transform=" translate(-39.98, -40.03)" d="M 61.1 50.6 C 69.1 37.8 67.6 20.8 56.5 9.700000000000003 C 43.5 -3.1999999999999975 22.6 -3.1999999999999975 9.700000000000003 9.700000000000003 C -3.1999999999999957 22.6 -3.1999999999999975 43.6 9.700000000000003 56.5 C 20.800000000000004 67.6 37.900000000000006 69.1 50.6 61.1 L 67.3 78 C 70 80.7 74.5 80.7 77.2 78 L 77.9 77.3 C 80.60000000000001 74.6 80.60000000000001 70.1 77.9 67.39999999999999 C 77.9 67.3 61.1 50.6 61.1 50.6 z" stroke-linecap="round" />
</g>
		<g transform="matrix(1 0 0 1 -6.98 -6.99)" id="2Av5rzQ9930VFkPtbzP0E"  >
<path style="stroke: none; stroke-width: 1; stroke-dasharray: none; stroke-linecap: butt; stroke-dashoffset: 0; stroke-linejoin: miter; stroke-miterlimit: 4; fill: white; fill-rule: nonzero; opacity: 1;" vector-effect="non-scaling-stroke"  transform=" translate(-33, -33.04)" d="M 16 16 C 6.6 25.4 6.6 40.6 16 50 C 25.4 59.4 40.6 59.4 50 50 C 59.4 40.6 59.4 25.4 50 16 C 40.7 6.7 25.4 6.7 16 16 z" stroke-linecap="round" />
</g>
		<g transform="matrix(1 0 0 1 2.38 -16.23)" id="q0ZOqnJS-sVKuBqPnacyL"  >
<path style="stroke: none; stroke-width: 1; stroke-dasharray: none; stroke-linecap: butt; stroke-dashoffset: 0; stroke-linejoin: miter; stroke-miterlimit: 4; fill: black; fill-rule: nonzero; opacity: 1;" vector-effect="non-scaling-stroke"  transform=" translate(-42.35, -23.8)" d="M 51.1 32.6 L 46.6 32.6 C 46.6 25.400000000000002 40.800000000000004 19.6 33.6 19.6 L 33.6 15 C 43.2 15 51.1 22.9 51.1 32.6 z" stroke-linecap="round" />
</g>
</g>
</g>
<!-- <g transform="matrix(2.54 0 0 2.54 209.51 271.81)" id="uWcNfGeEEYgXt5G9KuWBu"  >
<g style="" vector-effect="non-scaling-stroke"   >
		<g transform="matrix(1 0 0 1 0 9.75)" id="bRmg0Wso_3TDxHjc1t81-"  >
<path style="stroke: none; stroke-width: 1; stroke-dasharray: none; stroke-linecap: butt; stroke-dashoffset: 0; stroke-linejoin: miter; stroke-miterlimit: 4; fill: black; fill-rule: nonzero; opacity: 1;" vector-effect="non-scaling-stroke"  transform=" translate(-40, -49.75)" d="M 40 31.2 C 23.7 31.2 11 47.8 10.399999999999999 48.5 C 9.799999999999999 49.3 9.799999999999999 50.3 10.399999999999999 51.1 C 11 51.7 23.7 68.3 40 68.3 C 56.3 68.3 69 51.699999999999996 69.6 51 C 70.19999999999999 50.2 70.19999999999999 49.2 69.6 48.4 C 69 47.7 56.3 31.2 40 31.2 z" stroke-linecap="round" />
</g>
		<g transform="matrix(1 0 0 1 0 9.7)" id="TdRd5otpz466P2N9zU4aq"  >
<path style="stroke: none; stroke-width: 1; stroke-dasharray: none; stroke-linecap: butt; stroke-dashoffset: 0; stroke-linejoin: miter; stroke-miterlimit: 4; fill: white; fill-rule: nonzero; opacity: 1;" vector-effect="non-scaling-stroke"  transform=" translate(-40, -49.7)" d="M 40 35.8 C 28.8 35.8 19 46 15.8 49.699999999999996 C 19 53.4 28.8 63.599999999999994 40 63.599999999999994 C 51.2 63.599999999999994 61 53.39999999999999 64.2 49.699999999999996 C 61 46.1 51.2 35.8 40 35.8 z" stroke-linecap="round" />
</g>
		<g transform="matrix(1 0 0 1 0 9.65)" id="8NADqsb2FaiMofWGkYV_W"  >
<path style="stroke: none; stroke-width: 1; stroke-dasharray: none; stroke-linecap: butt; stroke-dashoffset: 0; stroke-linejoin: miter; stroke-miterlimit: 4; fill: black; fill-rule: nonzero; opacity: 1;" vector-effect="non-scaling-stroke"  transform=" translate(-40, -49.65)" d="M 51.7 49.7 C 51.7 56.2 46.5 61.400000000000006 40 61.400000000000006 C 33.5 61.400000000000006 28.3 56.2 28.3 49.7 C 28.3 49.5 28.3 49.400000000000006 28.3 49.2 C 29.400000000000002 50.300000000000004 30.8 51 32.5 51 C 35.7 51 38.3 48.4 38.3 45.2 C 38.3 42.5 36.5 40.300000000000004 34 39.6 C 35.7 38.6 37.8 37.9 40 37.9 C 46.5 38 51.7 43.3 51.7 49.7 z" stroke-linecap="round" />
</g>
		<g transform="matrix(1 0 0 1 0 -14.15)" id="dzv6qtA80nvArbT2wTaIn"  >
<path style="stroke: none; stroke-width: 1; stroke-dasharray: none; stroke-linecap: butt; stroke-dashoffset: 0; stroke-linejoin: miter; stroke-miterlimit: 4; fill: black; fill-rule: nonzero; opacity: 1;" vector-effect="non-scaling-stroke"  transform=" translate(-40, -25.85)" d="M 79.5 30.1 C 80.4 31.200000000000003 80.1 32.9 79 33.7 L 71.1 39.5 C 70.6 39.8 70.1 40 69.6 40 C 68.8 40 68 39.6 67.5 39 C 66.6 37.9 66.9 36.2 68 35.4 L 75.9 29.599999999999998 C 77 28.7 78.6 28.9 79.5 30.1 z M 55 29 C 55.4 29.2 55.8 29.3 56.2 29.3 C 57.1 29.3 58 28.8 58.5 27.900000000000002 L 63.1 19.300000000000004 C 63.800000000000004 18.000000000000004 63.300000000000004 16.500000000000004 62 15.800000000000004 C 60.7 15.100000000000005 59.2 15.600000000000005 58.5 16.900000000000006 L 53.9 25.500000000000007 C 53.3 26.8 53.7 28.3 55 29 z M 40.3 26.7 C 41.699999999999996 26.7 42.9 25.5 42.9 24.099999999999998 L 42.9 14.299999999999997 C 42.9 12.899999999999997 41.699999999999996 11.699999999999998 40.3 11.699999999999998 C 38.9 11.699999999999998 37.699999999999996 12.899999999999997 37.699999999999996 14.299999999999997 L 37.699999999999996 24.099999999999998 C 37.7 25.5 38.9 26.7 40.3 26.7 z M 21.5 27.9 C 22 28.799999999999997 22.9 29.299999999999997 23.8 29.299999999999997 C 24.2 29.299999999999997 24.6 29.199999999999996 25 28.999999999999996 C 26.3 28.299999999999997 26.7 26.799999999999997 26.1 25.499999999999996 L 21.5 16.9 C 20.8 15.599999999999998 19.3 15.2 18 15.799999999999999 C 16.7 16.5 16.3 18 16.9 19.299999999999997 L 21.5 27.9 z M 12.5 39 C 13.4 37.9 13.1 36.2 12 35.4 L 4.1 29.599999999999998 C 2.9999999999999996 28.7 1.2999999999999998 28.999999999999996 0.49999999999999956 30.099999999999998 C -0.40000000000000047 31.2 -0.10000000000000042 32.9 0.9999999999999996 33.699999999999996 L 8.9 39.49999999999999 C 9.4 39.79999999999999 9.9 39.99999999999999 10.4 39.99999999999999 C 11.2 40 12 39.7 12.5 39 z" stroke-linecap="round" />
</g>
</g>
</g> -->
</svg>